<svg width="145" height="179" viewBox="0 0 145 179" fill="none" xmlns="http://www.w3.org/2000/svg">
<g clip-path="url(#clip0)">
<path d="M125.353 20.8714C125.353 20.8714 101.247 50.6876 89.1938 101.375C86.8797 111.065 85.12 119.771 83.7699 127.524C83.1672 130.862 82.6611 134.023 82.2032 136.975C82.082 137.9 81.9384 138.824 81.8171 139.718C81.504 138.466 81.1662 137.184 80.8049 135.872C77.8881 124.989 74.0073 111.84 68.8234 96.3655C69.9334 94.1001 71.0905 91.7737 72.3193 89.4486C73.7177 86.764 75.1396 84.1711 76.538 81.6656C101.56 36.9121 125.353 20.8714 125.353 20.8714V20.8714Z" fill="#23B450"/>
<path d="M81.8171 139.747C78.3707 164.197 79.5513 175.916 79.5513 175.916H69.9087C69.9087 175.916 67.0154 147.321 57.8802 121.948C57.2293 120.099 56.5301 118.281 55.7826 116.491C53.5886 111.065 51.0814 105.936 48.2129 101.375C47.2724 99.8843 46.3084 98.4226 45.2961 97.022C44.2591 89.5374 42.8619 81.964 40.981 74.5405C29.5069 29.0999 15.8375 18.8433 14.5604 17.9494C16.3201 18.9321 41.8732 33.5723 60.6522 75.0763C63.0628 80.4135 65.377 86.1976 67.498 92.4302C67.9559 93.7711 68.3903 95.0828 68.8234 96.3654C74.0072 111.84 77.8881 124.989 80.8048 135.872C81.1662 137.184 81.504 138.466 81.8171 139.718V139.747Z" fill="#69C229"/>
<path d="M69.9087 175.916H45.8023C45.8023 175.916 41.2458 157.221 35.1474 140.285V140.256C34.0869 129.938 32.2059 118.489 28.9277 107.338C19.6465 75.7328 3.64069 57.9625 2.48363 56.7104C4.09857 57.7237 28.783 73.4369 45.2961 97.022C46.3084 98.4226 47.2724 99.8842 48.2129 101.375C51.0814 105.936 53.5886 111.065 55.7827 116.491C56.5301 118.281 57.2293 120.099 57.8802 121.948C67.0155 147.321 69.9087 175.916 69.9087 175.916Z" fill="#23B450"/>
<path d="M127.764 140.136C127.764 144.131 127.861 147.887 127.981 151.377C119.81 160.738 115.711 175.916 115.711 175.916H108.479C108.479 175.916 107.66 161.663 108.889 143.266V143.237C111.203 137.064 114.241 130.833 118.122 125.228C132.128 105.012 141.625 98.7807 142.204 98.4226C141.481 99.4664 127.764 119.801 127.764 140.136Z" fill="#23B450"/>
<path d="M36.1597 175.916H2.41064C2.41064 175.916 9.64258 166.971 9.64258 155.044C9.64258 143.386 4.09856 140.703 2.72374 140.225C4.57999 140.643 14.4403 143.266 22.7563 151.019V151.048C24.0582 152.242 25.3365 153.583 26.5171 155.044C36.1597 166.971 36.1597 175.916 36.1597 175.916Z" fill="#23B450"/>
<path d="M142.156 53.6983C140.999 54.7712 124.992 69.7696 115.711 101.375C111.709 115.001 109.781 130.177 108.889 143.237V143.266C107.66 161.663 108.479 175.916 108.479 175.916H79.5513C79.5513 175.916 78.3707 164.197 81.8171 139.747C81.8171 139.747 81.8171 139.747 81.8171 139.718C81.9384 138.824 82.082 137.9 82.2032 136.975C82.6611 134.023 83.1672 130.862 83.7699 127.524C88.3263 115.478 94.7379 102.329 103.658 89.4486C117.664 69.2324 140.733 54.5936 142.156 53.6983V53.6983Z" fill="#23B450"/>
<path d="M137.407 155.044C137.407 166.971 142.228 175.916 142.228 175.916H115.711C115.711 175.916 119.81 160.738 127.981 151.377C128.68 150.541 129.404 149.796 130.175 149.081C139.817 140.136 142.228 140.136 142.228 140.136C142.228 140.136 137.407 149.081 137.407 155.044V155.044Z" fill="#23B450"/>
<path d="M45.8023 175.916H36.1597C36.1597 175.916 36.1597 166.971 26.5171 155.044C25.3365 153.583 24.0582 152.242 22.7563 151.048V151.019C22.1784 145.92 21.1414 140.256 19.2852 134.173C12.3428 111.244 3.15809 102.09 2.45891 101.404C3.49591 101.732 20.2739 107.666 28.9277 125.228C31.0971 129.61 33.1946 134.859 35.1474 140.256V140.285C41.2458 157.221 45.8023 175.916 45.8023 175.916Z" fill="#23B450"/>
<path d="M76.538 81.6655C75.1396 84.1711 73.7177 86.764 72.3193 89.4486C71.0905 91.7736 69.9334 94.1001 68.8234 96.3655C68.3903 95.0828 67.9559 93.7711 67.498 92.4302C65.377 86.1977 63.0628 80.4135 60.6522 75.0763C67.9077 28.8917 79.5513 2.98163 79.5513 2.98163C79.5513 2.98163 75.96 45.2004 76.538 81.6655V81.6655Z" fill="#6DC82A"/>
<path d="M144.234 174.261C144.19 174.18 139.817 165.941 139.817 155.044C139.817 150.909 143.006 144.074 144.235 141.788C144.727 140.874 144.772 139.696 144.353 138.728C143.932 137.76 143.117 137.154 142.228 137.154C140.318 137.154 136.074 140.063 130.23 145.333C130.198 143.697 130.175 141.958 130.175 140.136C130.175 120.575 143.896 100.564 144.034 100.363C144.781 99.2855 144.81 97.7059 144.104 96.5878C143.399 95.4697 142.154 95.1232 141.126 95.755C140.714 96.0098 130.88 102.231 116.29 123.288C115.016 125.129 113.825 127.109 112.673 129.151C113.913 119.192 115.679 110.215 117.977 102.392C126.806 72.3257 141.91 57.655 143.603 56.0812C144.603 55.1523 144.862 53.4315 144.201 52.1197C143.538 50.8051 142.173 50.3407 141.061 51.0409C138.525 52.638 115.877 67.2302 101.827 87.509C97.7605 93.3805 94.0316 99.5636 90.6592 106.01C90.9512 104.739 91.2019 103.493 91.5067 102.216C103.229 52.9176 126.822 23.2717 127.059 22.9776C127.905 21.9294 128.001 20.2697 127.283 19.0846C126.565 17.8966 125.249 17.5399 124.2 18.2533C123.265 18.8823 102.271 33.3419 78.8897 72.4888C78.9486 38.998 81.916 3.67716 81.9489 3.29281C82.069 1.88353 81.3698 0.564511 80.2775 0.137941C79.1828 -0.285717 77.9998 0.292263 77.4443 1.53266C76.9887 2.54595 66.7859 25.5894 59.5492 66.9463C41.1469 30.3778 18.2423 16.7363 15.5538 15.2324C14.3779 14.57 12.9949 15.1756 12.4111 16.5995C11.8272 18.0204 12.251 19.7587 13.3727 20.5434C13.9412 20.9409 27.4081 30.7898 38.6809 75.4311C39.6461 79.2397 40.5054 83.2593 41.2764 87.4187C24.8892 67.5563 4.53527 54.6544 3.57478 54.0517C2.48952 53.3703 1.16766 53.7969 0.48614 55.0402C-0.194207 56.2864 -0.0188237 57.9636 0.895761 58.9536C1.56905 59.683 17.5113 77.1956 26.6619 108.357C27.8943 112.548 28.9501 117.012 29.8823 121.642C20.2197 104.177 3.2346 98.5707 3.05804 98.5154C1.94453 98.1645 0.805126 98.8167 0.300163 100.076C-0.205978 101.337 0.0682795 102.863 0.959323 103.738C1.91157 104.674 10.4548 113.511 17.0299 135.225C17.9845 138.354 18.7366 141.504 19.3405 144.719C11.646 139.338 4.14448 137.512 3.15574 137.291C1.88686 137.011 0.663878 138.001 0.374318 139.553C0.0847586 141.105 0.832199 142.665 2.07166 143.096C2.93327 143.394 7.23194 145.377 7.23194 155.044C7.23194 165.541 0.76746 173.73 0.706252 173.807C0.0164885 174.66 -0.189499 175.941 0.183633 177.057C0.556764 178.17 1.43604 178.897 2.41065 178.897H142.228C143.117 178.897 143.934 178.291 144.354 177.322C144.773 176.352 144.727 175.176 144.234 174.261ZM119.952 127.168C124.614 120.438 128.755 115.3 132.206 111.441C128.681 119.403 125.353 129.686 125.353 140.136C125.353 143.941 125.443 147.498 125.528 150.155C125.439 150.263 125.363 150.384 125.276 150.493C124.592 151.349 123.93 152.225 123.308 153.135C123.259 153.205 123.216 153.278 123.169 153.348C122.578 154.22 122.021 155.109 121.486 156.008C121.35 156.235 121.216 156.459 121.084 156.686C120.538 157.628 120.015 158.573 119.529 159.516C119.466 159.64 119.408 159.761 119.346 159.885C118.905 160.748 118.493 161.601 118.103 162.444C118.007 162.651 117.911 162.855 117.818 163.06C117.405 163.971 117.017 164.861 116.663 165.718C116.605 165.86 116.555 165.988 116.498 166.127C116.186 166.893 115.9 167.624 115.636 168.324C115.578 168.479 115.519 168.63 115.463 168.78C115.179 169.544 114.925 170.256 114.701 170.908C114.661 171.025 114.629 171.121 114.591 171.233C114.394 171.814 114.222 172.338 114.075 172.8C114.063 172.839 114.043 172.896 114.031 172.934H110.768C110.767 172.884 110.766 172.826 110.764 172.775C110.747 172.255 110.729 171.668 110.714 171.023C110.711 170.919 110.708 170.815 110.706 170.706C110.669 169.186 110.64 167.355 110.631 165.261C110.629 165.167 110.629 165.072 110.628 164.976C110.621 162.879 110.635 160.522 110.682 157.966C110.686 157.749 110.691 157.528 110.695 157.308C110.719 156.198 110.748 155.05 110.786 153.872C110.792 153.667 110.797 153.47 110.804 153.263C110.844 152.068 110.895 150.826 110.952 149.57C110.98 148.938 111.013 148.294 111.047 147.649C111.077 147.079 111.11 146.496 111.144 145.914C111.18 145.284 111.218 144.649 111.259 144.007C113.667 137.686 116.591 132.022 119.952 127.168ZM111.635 37.0719C103.676 51.0249 93.5278 72.5834 86.882 100.53C84.7327 109.53 82.8929 118.401 81.4169 126.874C81.3451 127.273 81.2745 127.669 81.205 128.062C81.0614 127.55 80.9037 127.023 80.7577 126.509C80.4799 125.533 80.1939 124.549 79.9091 123.565C79.3193 121.53 78.7143 119.478 78.0928 117.407C77.788 116.391 77.4843 115.377 77.1712 114.352C76.4296 111.921 75.6634 109.466 74.8782 106.991C74.6864 106.384 74.5039 105.789 74.3085 105.179C73.4057 102.357 72.4806 99.5141 71.5248 96.6446C72.4323 94.8029 73.3492 92.9467 74.345 91.0642C75.7293 88.4073 77.137 85.8391 78.5213 83.3612C78.5201 83.3627 78.5213 83.3598 78.5213 83.3612C90.7299 61.5261 102.702 46.5714 111.635 37.0719ZM75.9105 20.1867C74.9453 35.7339 73.8154 59.255 74.1131 80.764C72.8443 83.0468 71.5601 85.4024 70.3018 87.8162C69.9404 88.5005 69.585 89.1847 69.2354 89.8661C68.4679 87.6648 67.6416 85.4854 66.7988 83.319C66.6588 82.9565 66.5352 82.5882 66.3939 82.2271C65.3722 79.6429 64.3023 77.0894 63.1864 74.5823C67.0178 50.5911 72.0615 32.1336 75.9105 20.1867ZM14.777 69.1097C23.439 76.0804 34.6942 86.4331 43.4987 99.0089C44.4757 100.36 45.4056 101.771 46.3095 103.205C48.9215 107.357 51.3827 112.276 53.6415 117.859C54.3642 119.591 55.0458 121.365 55.6767 123.16C56.1852 124.571 56.6689 125.996 57.1386 127.426C57.2881 127.88 57.4305 128.337 57.5765 128.793C57.8931 129.785 58.2038 130.777 58.5028 131.772C58.6558 132.276 58.8053 132.781 58.9536 133.284C59.2456 134.285 59.5281 135.282 59.8035 136.278C59.9247 136.717 60.0507 137.16 60.1696 137.6C60.5474 139.003 60.9135 140.402 61.2584 141.785C61.2866 141.9 61.3125 142.012 61.3407 142.127C61.6597 143.414 61.9634 144.687 62.2542 145.943C62.3577 146.396 62.4566 146.84 62.5578 147.288C62.765 148.209 62.9675 149.121 63.1605 150.02C63.2617 150.491 63.3618 150.962 63.4595 151.427C63.6478 152.329 63.8279 153.215 64.0009 154.087C64.0786 154.476 64.1598 154.872 64.234 155.253C64.4706 156.469 64.6966 157.66 64.9037 158.804C64.9355 158.976 64.9614 159.133 64.992 159.304C65.1698 160.285 65.3369 161.24 65.4935 162.159C65.5594 162.55 65.6206 162.923 65.683 163.3C65.796 163.981 65.9054 164.648 66.0067 165.287C66.0655 165.657 66.1244 166.025 66.1785 166.381C66.2774 167.013 66.368 167.615 66.4539 168.198C66.4951 168.476 66.5399 168.77 66.5787 169.036C66.6941 169.83 66.8 170.581 66.893 171.259C66.9212 171.468 66.9436 171.638 66.9695 171.834C67.0213 172.223 67.0696 172.591 67.1143 172.934H47.5761C47.489 172.593 47.3913 172.213 47.2842 171.799C47.2618 171.712 47.2347 171.61 47.2112 171.52C47.1111 171.137 47.0052 170.734 46.891 170.298C46.8369 170.092 46.7792 169.876 46.7215 169.659C46.625 169.294 46.5238 168.917 46.4178 168.521C46.3531 168.278 46.2884 168.037 46.2201 167.784C46.0965 167.326 45.967 166.848 45.8328 166.357C45.774 166.145 45.7198 165.942 45.6586 165.723C45.462 165.006 45.2572 164.264 45.0395 163.488C45.0018 163.351 44.9594 163.205 44.9206 163.067C44.7405 162.425 44.5545 161.769 44.3615 161.093C44.2803 160.809 44.1967 160.519 44.1131 160.231C43.9507 159.666 43.7847 159.094 43.614 158.51C43.5211 158.191 43.4281 157.874 43.3315 157.549C43.1432 156.909 42.949 156.259 42.7524 155.601C42.6759 155.348 42.6029 155.101 42.5264 154.846C42.2486 153.926 41.9638 152.995 41.6707 152.051C41.6177 151.879 41.5624 151.706 41.5083 151.534C41.267 150.759 41.0221 149.979 40.7702 149.193C40.6702 148.877 40.5666 148.559 40.4642 148.242C40.25 147.575 40.0322 146.907 39.8109 146.237C39.7003 145.9 39.5896 145.565 39.4778 145.228C39.2412 144.518 39.0011 143.809 38.7586 143.098C38.6656 142.829 38.575 142.558 38.482 142.289C38.1583 141.351 37.8311 140.415 37.498 139.485C36.2362 127.419 34.1163 116.262 31.1936 106.32C26.4912 90.3057 20.1574 77.8275 14.777 69.1097ZM11.5259 109.399C16.6826 112.926 22.7893 118.499 26.8714 126.784C28.7512 130.579 30.7133 135.315 32.8686 141.255C32.8909 141.337 32.9168 141.418 32.9451 141.497C33.43 142.842 33.9008 144.203 34.3658 145.565C34.4906 145.932 34.6142 146.297 34.7377 146.664C35.1332 147.839 35.5217 149.014 35.8995 150.181C35.9584 150.365 36.0196 150.55 36.0784 150.732C36.5045 152.058 36.9165 153.37 37.3155 154.662C37.4274 155.023 37.5356 155.38 37.6451 155.738C37.9617 156.775 38.269 157.797 38.5656 158.796C38.6456 159.065 38.7292 159.342 38.8081 159.608C39.1635 160.812 39.5014 161.981 39.8239 163.106C39.9098 163.408 39.991 163.696 40.0746 163.99C40.3218 164.864 40.5584 165.708 40.7832 166.516C40.8609 166.799 40.9421 167.09 41.0174 167.363C41.2811 168.32 41.5295 169.231 41.7554 170.071C41.8261 170.338 41.8896 170.575 41.9567 170.828C42.1145 171.417 42.2616 171.974 42.397 172.487C42.4358 172.638 42.4758 172.788 42.5135 172.934H38.2278C38.2254 172.92 38.2207 172.903 38.2183 172.89C38.1407 172.471 38.0383 172 37.9205 171.504C37.8852 171.355 37.8464 171.204 37.8076 171.05C37.7004 170.625 37.5757 170.178 37.4368 169.706C37.3909 169.549 37.3497 169.402 37.2991 169.24C37.106 168.618 36.8859 167.965 36.6281 167.273C36.581 167.145 36.5234 167.01 36.4739 166.88C36.2515 166.299 36.0031 165.696 35.73 165.072C35.6335 164.851 35.5334 164.629 35.4299 164.402C35.1332 163.753 34.8084 163.086 34.4541 162.397C34.3764 162.247 34.3093 162.105 34.2293 161.953C33.7926 161.128 33.3053 160.275 32.7756 159.4C32.6402 159.177 32.4907 158.95 32.3495 158.724C31.9175 158.034 31.4537 157.331 30.9593 156.615C30.7745 156.348 30.5933 156.083 30.3991 155.813C29.7246 154.869 29.0125 153.914 28.2215 152.936C27.321 151.821 26.3299 150.762 25.2976 149.74C25.1941 149.637 25.1081 149.519 25.0022 149.417C24.2983 143.778 23.1624 138.435 21.5428 133.127C18.3435 122.559 14.691 114.823 11.5259 109.399ZM10.8526 146.301C14.0272 147.847 17.6761 150.069 21.0778 153.189C21.1543 153.281 21.2356 153.365 21.3215 153.445C22.5845 154.601 23.758 155.849 24.8127 157.152C25.4424 157.931 26.0168 158.692 26.5618 159.441C26.7266 159.668 26.8784 159.889 27.0362 160.113C27.4046 160.639 27.7589 161.156 28.0885 161.662C28.2403 161.897 28.3898 162.128 28.5346 162.358C28.863 162.882 29.169 163.395 29.4574 163.897C29.5539 164.064 29.6587 164.236 29.7505 164.401C30.1189 165.063 30.4591 165.707 30.7628 166.322C30.8016 166.403 30.8322 166.475 30.8699 166.552C31.1312 167.093 31.369 167.614 31.5855 168.115C31.655 168.278 31.7186 168.433 31.7845 168.592C31.9563 169.009 32.1152 169.412 32.2588 169.798C32.3106 169.937 32.3636 170.079 32.4119 170.215C32.5696 170.658 32.712 171.083 32.8344 171.482C32.8485 171.526 32.865 171.575 32.8791 171.62C33.0192 172.086 33.1381 172.52 33.237 172.918C33.2393 172.923 33.2393 172.928 33.2417 172.934H7.36142C9.55665 168.816 12.0532 162.495 12.0532 155.044C12.0532 151.471 11.58 148.602 10.8526 146.301ZM72.0027 172.934C71.985 172.785 71.9591 172.594 71.9391 172.434C71.9226 172.293 71.9038 172.153 71.885 172.003C71.8249 171.529 71.7567 171.015 71.6825 170.456C71.6554 170.252 71.6295 170.063 71.6013 169.849C71.5165 169.233 71.4235 168.57 71.3223 167.872C71.2952 167.688 71.2729 167.524 71.2458 167.333C71.1128 166.423 70.9668 165.461 70.8056 164.431C70.7938 164.356 70.7797 164.273 70.7679 164.198C70.6231 163.28 70.4666 162.317 70.2983 161.316C70.2382 160.958 70.1723 160.583 70.1088 160.215C69.9781 159.452 69.8427 158.681 69.698 157.878C69.6179 157.433 69.5343 156.983 69.4496 156.526C69.306 155.746 69.1541 154.949 68.9964 154.137C68.9034 153.655 68.8116 153.18 68.7139 152.688C68.5374 151.805 68.3502 150.902 68.1595 149.989C68.0689 149.554 67.983 149.132 67.8888 148.69C67.5992 147.338 67.2956 145.964 66.9719 144.562C66.9354 144.401 66.893 144.235 66.8553 144.075C66.5658 142.832 66.2633 141.573 65.9466 140.3C65.8254 139.815 65.6971 139.326 65.5723 138.837C65.324 137.869 65.0709 136.898 64.8072 135.917C64.6554 135.355 64.5 134.794 64.3423 134.229C64.0821 133.293 63.8138 132.356 63.5383 131.414C63.3724 130.844 63.2064 130.278 63.0334 129.709C62.7309 128.706 62.4154 127.706 62.0941 126.701C61.9352 126.206 61.7821 125.71 61.6185 125.215C61.1277 123.724 60.6216 122.237 60.0895 120.76C59.4245 118.867 58.6959 116.97 57.939 115.157C55.5531 109.258 52.9211 104.005 50.1138 99.5403C49.284 98.2257 48.4353 96.9328 47.5549 95.6808C46.4461 87.8788 45.0101 80.4713 43.2821 73.6506C38.4161 54.3836 33.1593 41.2721 28.5299 32.4306C37.4721 41.1192 48.885 55.1742 58.5476 76.5318C61.0312 82.0291 63.2959 87.7682 65.2769 93.5887L66.5964 97.5064C71.1975 111.24 75.2078 124.463 78.5225 136.834C78.8156 137.897 79.0827 138.926 79.3429 139.949C79.3017 140.248 79.2723 140.51 79.2322 140.805C79.0251 142.331 78.8344 143.806 78.6614 145.231C78.5978 145.761 78.5354 146.282 78.4754 146.796C78.3047 148.265 78.1505 149.683 78.014 151.039C77.9928 151.256 77.9657 151.49 77.9445 151.704C77.7939 153.249 77.6691 154.699 77.5573 156.094C77.5255 156.492 77.4984 156.871 77.4702 157.258C77.3913 158.318 77.3218 159.331 77.2642 160.301C77.2453 160.615 77.223 160.94 77.2065 161.247C77.1406 162.437 77.0876 163.562 77.0488 164.607C77.0405 164.833 77.037 165.031 77.0288 165.249C77.0017 166.092 76.9805 166.887 76.9675 167.631C76.9628 167.896 76.9581 168.151 76.9558 168.403C76.9464 169.177 76.9417 169.902 76.9452 170.56V170.805C76.9499 171.536 76.9628 172.171 76.9781 172.755C76.9793 172.808 76.9793 172.881 76.9805 172.934H72.0027ZM81.8088 172.934C81.8065 172.855 81.8041 172.771 81.8018 172.689C81.79 172.258 81.7818 171.77 81.7759 171.239C81.7735 171.086 81.7712 170.946 81.77 170.785C81.7653 170.102 81.7676 169.339 81.7782 168.509C81.7794 168.327 81.7841 168.125 81.7877 167.937C81.7994 167.212 81.8194 166.429 81.8465 165.599C81.8536 165.359 81.8606 165.129 81.87 164.88C81.9077 163.84 81.9583 162.728 82.0254 161.533C82.036 161.326 82.0525 161.099 82.0643 160.888C82.1267 159.85 82.2008 158.748 82.2879 157.597C82.3138 157.254 82.3385 156.913 82.3668 156.559C82.4798 155.154 82.6069 153.688 82.7611 152.125C82.7776 151.96 82.7988 151.78 82.8152 151.612C82.9577 150.197 83.1236 148.705 83.3049 147.162C83.3579 146.715 83.4108 146.265 83.4673 145.808C83.6839 144.032 83.9193 142.202 84.1924 140.261C84.1995 140.214 84.2042 140.165 84.2089 140.112L84.5703 137.537C84.7962 136.086 85.0328 134.583 85.2883 133.031C85.3224 132.821 85.3636 132.597 85.3989 132.385C85.6096 131.114 85.8309 129.817 86.0698 128.48C91.1383 115.157 97.6699 102.678 105.488 91.3889C112.03 81.9461 120.566 73.7627 127.889 67.6713C122.952 75.584 117.536 86.4229 113.445 100.357C109.947 112.268 107.606 126.611 106.486 143.02C106.386 144.527 106.303 145.993 106.227 147.437C106.207 147.824 106.188 148.204 106.17 148.586C106.109 149.848 106.055 151.085 106.012 152.289C106.006 152.441 105.999 152.598 105.993 152.748C105.946 154.082 105.912 155.363 105.882 156.612C105.875 156.955 105.868 157.287 105.862 157.624C105.841 158.649 105.826 159.643 105.816 160.601C105.814 160.813 105.811 161.033 105.808 161.243C105.799 162.357 105.796 163.411 105.799 164.423C105.799 164.706 105.801 164.97 105.802 165.245C105.806 166.041 105.812 166.8 105.821 167.521C105.823 167.726 105.825 167.938 105.828 168.138C105.84 168.993 105.855 169.782 105.872 170.512C105.876 170.718 105.881 170.895 105.887 171.09C105.901 171.651 105.915 172.168 105.931 172.642C105.933 172.731 105.936 172.848 105.939 172.934H81.8088ZM119.255 172.934C119.268 172.896 119.283 172.853 119.296 172.816C119.479 172.297 119.685 171.734 119.905 171.144C119.954 171.012 120.005 170.879 120.055 170.744C120.304 170.093 120.569 169.415 120.859 168.703C120.869 168.681 120.876 168.661 120.885 168.639C121.198 167.876 121.539 167.081 121.902 166.27C121.94 166.187 121.98 166.103 122.018 166.02C122.34 165.305 122.685 164.577 123.046 163.843C123.112 163.709 123.177 163.575 123.245 163.44C124.068 161.796 124.986 160.129 125.998 158.515C126.081 158.384 126.167 158.255 126.25 158.124C126.674 157.463 127.116 156.816 127.571 156.181C127.69 156.015 127.808 155.849 127.929 155.684C128.483 154.938 129.055 154.21 129.654 153.522C130.238 152.825 130.882 152.152 131.621 151.465C133.542 149.683 135.153 148.28 136.496 147.173C135.649 149.755 134.996 152.554 134.996 155.044C134.996 162.536 136.745 168.899 138.221 172.934H119.255Z" fill="black"/>
<path d="M46.7898 73.0424C45.8282 73.0424 44.9194 72.3261 44.5463 71.1527L42.6418 65.1821C42.1533 63.6506 42.7619 61.9195 44.0002 61.3154C45.2396 60.7126 46.6403 61.4653 47.1265 62.9954L49.031 68.9659C49.5195 70.4975 48.9109 72.2285 47.6726 72.8327C47.3831 72.974 47.0829 73.0424 46.7898 73.0424Z" fill="white"/>
<path d="M53.5827 100.555C52.4703 100.555 51.471 99.5989 51.2274 98.1983C50.314 92.9252 48.9933 87.735 47.3007 82.772C46.7827 81.2535 47.3583 79.505 48.5848 78.8659C49.8137 78.2194 51.2262 78.9386 51.7429 80.4542C53.5521 85.7623 54.9657 91.3121 55.9427 96.9492C56.2217 98.5594 55.3918 100.143 54.09 100.49C53.9205 100.535 53.7498 100.555 53.5827 100.555V100.555Z" fill="white"/>
<path d="M60.7428 166.451C59.6211 166.451 58.6158 165.477 58.3828 164.065C56.4971 152.617 53.4485 141.483 49.3241 130.971C48.7426 129.491 49.2417 127.707 50.4399 126.988C51.6323 126.269 53.0789 126.883 53.6604 128.368C57.9626 139.328 61.1407 150.937 63.1075 162.874C63.3736 164.487 62.5308 166.062 61.2266 166.391C61.0641 166.432 60.9017 166.451 60.7428 166.451V166.451Z" fill="white"/>
<path d="M65.6006 81.6305C65.4523 81.6305 65.3004 81.6145 65.1486 81.5781C63.8409 81.2709 62.9816 79.7117 63.23 78.0928L65.8784 60.8189C66.1256 59.2029 67.3768 58.127 68.6963 58.4458C70.004 58.753 70.8633 60.3122 70.6149 61.9312L67.9665 79.2051C67.7476 80.6347 66.7365 81.6305 65.6006 81.6305Z" fill="white"/>
<path d="M69.5744 55.451C69.3613 55.451 69.1436 55.4146 68.9282 55.3404C67.6452 54.9007 66.8942 53.257 67.2509 51.6702L68.3432 46.8076C68.701 45.2236 70.0334 44.2948 71.3129 44.7359C72.5959 45.1785 73.3457 46.8221 72.9879 48.409L71.8956 53.2658C71.6001 54.5848 70.6302 55.451 69.5744 55.451Z" fill="white"/>
<path d="M89.6435 132.13C89.3928 132.13 89.1374 132.081 88.8866 131.977C87.6225 131.461 86.9362 129.775 87.3553 128.211C88.6442 123.388 90.2815 118.665 92.2189 114.174C92.8451 112.721 94.3047 112.166 95.4806 112.946C96.6553 113.722 97.0991 115.528 96.4729 116.981C94.6637 121.173 93.1359 125.582 91.9317 130.083C91.5974 131.335 90.6558 132.13 89.6435 132.13V132.13Z" fill="white"/>
<path d="M98.8576 110.818C98.5857 110.818 98.3091 110.76 98.0384 110.639C96.786 110.078 96.1374 108.369 96.5906 106.821C97.1968 104.745 98.1902 102.831 99.4614 101.282C100.41 100.126 101.936 100.14 102.87 101.314C103.805 102.487 103.793 104.374 102.844 105.53C102.083 106.459 101.488 107.606 101.125 108.849C100.769 110.062 99.844 110.818 98.8576 110.818Z" fill="white"/>
<path d="M127.153 172.335C126.81 172.335 126.461 172.245 126.13 172.053C124.925 171.353 124.406 169.578 124.972 168.087L127.75 160.763C128.316 159.271 129.752 158.627 130.956 159.33C132.162 160.031 132.681 161.805 132.115 163.296L129.337 170.62C128.926 171.702 128.058 172.335 127.153 172.335Z" fill="white"/>
<path d="M16.9616 155.896H16.7427C15.4114 155.896 14.332 154.561 14.332 152.914C14.332 151.268 15.4114 149.933 16.7427 149.933C18.0739 149.933 19.2628 151.268 19.2628 152.914C19.2628 154.561 18.2929 155.896 16.9616 155.896Z" fill="white"/>
<path d="M26.776 170.216C25.9956 170.216 25.2294 169.749 24.7656 168.884C23.4296 166.397 21.8182 164.154 19.9773 162.217C18.9626 161.152 18.839 159.271 19.7018 158.016C20.5635 156.761 22.0854 156.608 23.0989 157.675C25.2847 159.971 27.1963 162.632 28.7818 165.585C29.5186 166.956 29.2161 168.807 28.1073 169.718C27.6977 170.054 27.2339 170.216 26.776 170.216Z" fill="white"/>
</g>
<defs>
<clipPath id="clip0">
<rect width="144.639" height="178.897" fill="white"/>
</clipPath>
</defs>
</svg>
